<?xml version="1.0" standalone="no"?>
<!DOCTYPE svg PUBLIC "-//W3C//DTD SVG 20010904//EN"
 "http://www.w3.org/TR/2001/REC-SVG-20010904/DTD/svg10.dtd">
<svg version="1.0" xmlns="http://www.w3.org/2000/svg"
 width="512.000000pt" height="512.000000pt" viewBox="0 0 512.000000 512.000000"
 preserveAspectRatio="xMidYMid meet">
<metadata>
Created by potrace 1.14, written by Peter Selinger 2001-2017
</metadata>
<g transform="translate(0.000000,512.000000) scale(0.100000,-0.100000)"
fill="#000000" stroke="none">
<path d="M2379 4616 c-2 -2 -35 -7 -74 -10 -38 -4 -79 -9 -90 -11 -11 -2 -42
-7 -70 -10 -27 -4 -59 -11 -70 -16 -11 -5 -25 -10 -32 -11 -53 -10 -211 -74
-308 -125 -161 -85 -325 -213 -455 -358 -201 -223 -339 -478 -411 -757 -33
-130 -43 -213 -45 -388 -4 -319 73 -618 229 -890 142 -247 390 -481 647 -611
86 -43 256 -108 295 -113 14 -2 34 -6 45 -10 11 -3 35 -8 53 -11 18 -3 43 -7
55 -10 40 -10 224 -12 307 -4 267 26 538 131 768 298 108 79 262 231 345 340
120 159 234 395 278 575 9 36 19 74 22 85 3 11 7 38 10 60 3 22 7 51 10 65 13
63 5 359 -11 455 -43 247 -138 478 -278 675 -38 54 -70 99 -70 101 0 1 -21 26
-47 56 -113 131 -315 285 -468 356 -52 24 -97 44 -100 44 -3 0 -40 13 -82 28
-92 35 -208 65 -301 78 -36 6 -76 13 -90 15 -24 5 -357 13 -362 9z m316 -190
c28 -3 70 -9 95 -13 110 -16 331 -89 372 -123 7 -5 27 -17 45 -25 83 -39 246
-165 339 -262 54 -56 180 -225 225 -301 129 -215 205 -444 227 -677 9 -96 9
-118 -1 -225 -38 -412 -216 -786 -506 -1065 -290 -279 -633 -434 -1021 -465
-69 -5 -284 -5 -313 0 -10 2 -42 7 -71 10 -29 4 -65 11 -82 16 -16 5 -39 12
-50 14 -124 29 -300 116 -448 222 -33 24 -150 125 -188 163 -130 131 -226 266
-305 428 -137 281 -183 619 -126 932 11 61 23 115 26 119 3 5 7 21 10 35 34
152 171 405 297 547 20 22 50 58 68 79 18 21 69 68 113 103 87 71 221 158 288
188 23 10 42 21 42 25 0 6 114 50 205 80 63 20 175 43 265 55 108 14 338 19
469 10z"/>
<path d="M2380 3869 c-30 -5 -71 -12 -90 -15 -19 -3 -39 -8 -44 -12 -5 -3 -16
-6 -25 -8 -65 -8 -266 -116 -355 -191 -178 -149 -301 -351 -354 -586 -15 -67
-21 -273 -9 -347 28 -165 93 -318 191 -445 46 -60 168 -184 211 -214 15 -11
46 -33 69 -51 23 -17 54 -35 69 -39 15 -4 27 -11 27 -16 0 -5 6 -9 14 -9 8 0
21 -6 28 -13 18 -19 202 -77 278 -88 171 -25 375 -6 531 49 276 98 495 301
615 570 39 87 36 76 64 190 43 174 35 386 -20 557 -36 113 -125 272 -195 351
-14 15 -25 30 -25 33 0 3 -17 24 -39 46 -21 23 -67 66 -102 98 -95 86 -274
180 -404 211 -33 8 -67 17 -75 20 -8 2 -30 7 -49 9 -19 3 -45 7 -57 10 -14 4
-34 4 -45 0 -11 -3 -29 -2 -40 3 -28 11 -89 10 -169 -2z"/>
</g>
</svg> 